<svg width="312" height="106" viewBox="0 0 312 106" fill="none" xmlns="http://www.w3.org/2000/svg">
<g opacity="0.1">
<path d="M197.259 171.827C215.945 161.505 236.728 145.888 249.9 123.155C278.646 73.5033 260.098 9.02396 260.098 9.02396C260.098 9.02396 233.027 15.7485 206.082 33.7781C214.773 51.1567 221.652 72.1233 221.652 94.9789C221.652 125.216 209.611 152.143 197.259 171.827Z" fill="white"/>
<path d="M114.449 171.827C102.096 152.143 90.0552 125.216 90.0552 94.9789C90.0552 72.1233 96.9341 51.1567 105.625 33.7781C78.6806 15.7485 51.6094 9.02396 51.6094 9.02396C51.6094 9.02396 33.0623 73.5039 61.8085 123.155C74.9798 145.888 95.7637 161.505 114.449 171.827Z" fill="white"/>
<path d="M155.574 0.0106201C155.574 0.0106201 111.632 42.3796 111.632 94.6532C111.632 146.917 155.574 189.291 155.574 189.291C155.574 189.291 199.512 146.918 199.512 94.6532C199.512 42.3796 155.574 0.0106201 155.574 0.0106201Z" fill="white"/>
</g>
</svg>
