<svg width="11" height="12" viewBox="0 0 11 12" fill="none" xmlns="http://www.w3.org/2000/svg">
<g id="share-connection-sing">
<path id="Shape" d="M8.65564 7.8469C8.2206 7.8469 7.82101 7.99295 7.50081 8.23605L4.19673 6.27816C4.21332 6.17799 4.22421 6.07583 4.22421 5.97116C4.22421 5.86624 4.21332 5.76433 4.19673 5.66404L7.50081 3.70614C7.82101 3.94949 8.2206 4.09542 8.65564 4.09542C9.70437 4.09542 10.5548 3.25547 10.5548 2.21969C10.5548 1.1839 9.70437 0.343948 8.65564 0.343948C7.60691 0.343948 6.75645 1.1839 6.75645 2.21969C6.75645 2.32435 6.76734 2.42652 6.78418 2.52668L3.48011 4.48458C3.15991 4.24148 2.76032 4.09542 2.32503 4.09542C1.2763 4.09542 0.425842 4.93538 0.425842 5.97116C0.425842 7.00694 1.2763 7.8469 2.32503 7.8469C2.76032 7.8469 3.15991 7.70096 3.48011 7.45762L6.78418 9.41551C6.76734 9.5158 6.75645 9.61772 6.75645 9.72263C6.75645 10.7584 7.60691 11.5984 8.65564 11.5984C9.70437 11.5984 10.5548 10.7584 10.5548 9.72263C10.5548 8.68685 9.70437 7.8469 8.65564 7.8469Z" fill="#80848F"/>
</g>
</svg>
