<svg width="11" height="13" viewBox="0 0 11 13" fill="none" xmlns="http://www.w3.org/2000/svg">
<g id="share (2)">
<g id="Group">
<path id="Oval" d="M2.15369 8.7593C3.20372 8.7593 4.05494 7.77848 4.05494 6.56856C4.05494 5.35865 3.20372 4.37782 2.15369 4.37782C1.10366 4.37782 0.252441 5.35865 0.252441 6.56856C0.252441 7.77848 1.10366 8.7593 2.15369 8.7593Z" fill="white"/>
<path id="Oval_2" d="M8.49106 5.25415C9.54109 5.25415 10.3923 4.27332 10.3923 3.06341C10.3923 1.85349 9.54109 0.872665 8.49106 0.872665C7.44102 0.872665 6.58981 1.85349 6.58981 3.06341C6.58981 4.27332 7.44102 5.25415 8.49106 5.25415Z" fill="white"/>
<path id="Oval_3" d="M8.49106 12.7024C9.54109 12.7024 10.3923 11.7215 10.3923 10.5116C10.3923 9.30171 9.54109 8.32088 8.49106 8.32088C7.44102 8.32088 6.58981 9.30171 6.58981 10.5116C6.58981 11.7215 7.44102 12.7024 8.49106 12.7024Z" fill="white"/>
<path id="Rectangle-path" d="M2.63396 7.01831L1.99617 5.92297L8.43301 2.17497L9.0708 3.27031L2.63396 7.01831Z" fill="white"/>
<path id="Rectangle-path_2" d="M8.30635 10.9153L2.09939 7.30116L2.76081 6.16524L8.96776 9.77938L8.30635 10.9153Z" fill="white"/>
</g>
</g>
</svg>
